<svg version="1.1" id="Layer_1" xmlns="http://www.w3.org/2000/svg" xmlns:xlink="http://www.w3.org/1999/xlink" x="0px" y="0px" viewBox="0 0 45.8 47.6" xml:space="preserve">
 <style type="text/css">
  .st0{clip-path:url(#SVGID_2_);fill:url(#SVGID_3_);}
 </style>
 <g>
  <g>
   <defs>
    <path id="SVGID_1_" d="M10.3,41.8l-0.2,0.1C10.1,41.9,10.2,41.8,10.3,41.8 M18.2,0C1.6,0-0.2,11.2,0.7,18.1
				c0.4-3.8,6.1-12,11.8-14.8C2.9,12.2-4.2,24.9,3,36.8c-1.2-1.2-2.2-2.5-3-3.9c8.4,19.7,37.2,19.5,44.2-0.4
				c1.1-2.8,1.6-5.7,1.6-8.6c0-3.2-0.6-6.2-1.8-9.2c-1.2-2.8-2.8-5.4-5-7.6c-2.2-2.2-4.8-3.9-7.7-5.1c-2.8-1.2-5.8-1.8-8.9-1.9
				c12.8,4.1,20.2,17.8,15.2,30.6c-3.6,9.2-14.1,13.8-23.2,9.7c-0.3-0.1-0.6-0.3-0.8-0.4c-1.5-1.3-2.7-3.1-3.3-5.2
				c-1.4-4.9,0.2-10.9,5.5-14.6c-9.4,3.2-10.6,16.3-4.1,21.8c-1.5-1.1-2.9-2.3-4-3.5c-3.8-4.7-5.1-10.5-4.2-15.9
				c15.9-5,7-14,15.3-22.5c-0.2,0-0.3,0-0.5,0H18.2z">
    </path>
   </defs>
   <clipPath id="SVGID_2_">
    <use href="#SVGID_1_" style="overflow:visible;">
    </use>
   </clipPath>
   <linearGradient id="SVGID_3_" gradientUnits="userSpaceOnUse" x1="-543.9046" y1="521.0545" x2="-542.9046" y2="521.0545" gradientTransform="matrix(45.7911 0 0 -45.7911 24905.9805 23885.9512)">
    <stop offset="0" style="stop-color:#2E793C">
    </stop>
    <stop offset="0.1091" style="stop-color:#2E793C">
    </stop>
    <stop offset="0.3873" style="stop-color:#3F8C3E">
    </stop>
    <stop offset="0.9496" style="stop-color:#6BBD45">
    </stop>
    <stop offset="0.9576" style="stop-color:#6CBE45">
    </stop>
    <stop offset="1" style="stop-color:#6CBE45">
    </stop>
   </linearGradient>
   <rect x="-4.2" y="0" class="st0" width="50" height="52.6">
   </rect>
  </g>
 </g>
</svg>